<svg width="106" height="65" viewBox="0 0 106 65" fill="none" xmlns="http://www.w3.org/2000/svg">
<line x1="18" y1="2" x2="88" y2="2" stroke="white" stroke-width="4"/>
<line x1="20" y1="1" x2="20" y2="21" stroke="white" stroke-width="4"/>
<line x1="86" y1="1" x2="86" y2="21" stroke="white" stroke-width="4"/>
<line x1="88" y1="63" x2="18" y2="63" stroke="white" stroke-width="4"/>
<line x1="86" y1="65" x2="86" y2="45" stroke="white" stroke-width="4"/>
<line x1="20" y1="65" x2="20" y2="45" stroke="white" stroke-width="4"/>
<path d="M1.91761 39V21.5455H12.8608V23.8125H4.55114V29.1307H12.2898V31.3892H4.55114V36.733H12.9631V39H1.91761ZM24.4666 33.571V25.9091H27.0234V39H24.5178V36.733H24.3814C24.0803 37.4318 23.5973 38.0142 22.9325 38.4801C22.2734 38.9403 21.4524 39.1705 20.4695 39.1705C19.6286 39.1705 18.8842 38.9858 18.2365 38.6165C17.5945 38.2415 17.0888 37.6875 16.7195 36.9545C16.3558 36.2216 16.174 35.3153 16.174 34.2358V25.9091H18.7223V33.929C18.7223 34.821 18.9695 35.5312 19.4638 36.0597C19.9581 36.5881 20.6001 36.8523 21.3899 36.8523C21.8672 36.8523 22.3416 36.733 22.8132 36.4943C23.2905 36.2557 23.6854 35.8949 23.9979 35.4119C24.3161 34.929 24.4723 34.3153 24.4666 33.571ZM30.4474 39V25.9091H32.9105V27.9886H33.0469C33.2855 27.2841 33.706 26.7301 34.3082 26.3267C34.9162 25.9176 35.6037 25.7131 36.3707 25.7131C36.5298 25.7131 36.7173 25.7187 36.9332 25.7301C37.1548 25.7415 37.3281 25.7557 37.4531 25.7727V28.2102C37.3509 28.1818 37.169 28.1506 36.9077 28.1165C36.6463 28.0767 36.3849 28.0568 36.1236 28.0568C35.5213 28.0568 34.9844 28.1847 34.5128 28.4403C34.0469 28.6903 33.6776 29.0398 33.4048 29.4886C33.1321 29.9318 32.9957 30.4375 32.9957 31.0057V39H30.4474ZM44.7038 39.2642C43.4766 39.2642 42.4055 38.983 41.4908 38.4205C40.576 37.858 39.8658 37.071 39.3601 36.0597C38.8544 35.0483 38.6016 33.8665 38.6016 32.5142C38.6016 31.1562 38.8544 29.9687 39.3601 28.9517C39.8658 27.9347 40.576 27.1449 41.4908 26.5824C42.4055 26.0199 43.4766 25.7386 44.7038 25.7386C45.9311 25.7386 47.0021 26.0199 47.9169 26.5824C48.8317 27.1449 49.5419 27.9347 50.0476 28.9517C50.5533 29.9687 50.8061 31.1562 50.8061 32.5142C50.8061 33.8665 50.5533 35.0483 50.0476 36.0597C49.5419 37.071 48.8317 37.858 47.9169 38.4205C47.0021 38.983 45.9311 39.2642 44.7038 39.2642ZM44.7124 37.125C45.5078 37.125 46.1669 36.9148 46.6896 36.4943C47.2124 36.0739 47.5987 35.5142 47.8487 34.8153C48.1044 34.1165 48.2322 33.3466 48.2322 32.5057C48.2322 31.6705 48.1044 30.9034 47.8487 30.2045C47.5987 29.5 47.2124 28.9347 46.6896 28.5085C46.1669 28.0824 45.5078 27.8693 44.7124 27.8693C43.9112 27.8693 43.2464 28.0824 42.718 28.5085C42.1953 28.9347 41.8061 29.5 41.5504 30.2045C41.3004 30.9034 41.1754 31.6705 41.1754 32.5057C41.1754 33.3466 41.3004 34.1165 41.5504 34.8153C41.8061 35.5142 42.1953 36.0739 42.718 36.4943C43.2464 36.9148 43.9112 37.125 44.7124 37.125ZM68.3523 27.2216H65.6932C65.5909 26.6534 65.4006 26.1534 65.1222 25.7216C64.8438 25.2898 64.5028 24.9233 64.0994 24.6222C63.696 24.321 63.2443 24.0937 62.7443 23.9403C62.25 23.7869 61.7244 23.7102 61.1676 23.7102C60.1619 23.7102 59.2614 23.9631 58.4659 24.4688C57.6761 24.9744 57.0511 25.7159 56.5909 26.6932C56.1364 27.6705 55.9091 28.8636 55.9091 30.2727C55.9091 31.6932 56.1364 32.892 56.5909 33.8693C57.0511 34.8466 57.679 35.5852 58.4744 36.0852C59.2699 36.5852 60.1648 36.8352 61.1591 36.8352C61.7102 36.8352 62.233 36.7614 62.7273 36.6136C63.2273 36.4602 63.679 36.2358 64.0824 35.9403C64.4858 35.6449 64.8267 35.2841 65.1051 34.858C65.3892 34.4261 65.5852 33.9318 65.6932 33.375L68.3523 33.3835C68.2102 34.2415 67.9347 35.0312 67.5256 35.7528C67.1222 36.4688 66.6023 37.0881 65.9659 37.6108C65.3352 38.1278 64.6136 38.5284 63.8011 38.8125C62.9886 39.0966 62.1023 39.2386 61.142 39.2386C59.6307 39.2386 58.2841 38.8807 57.1023 38.1648C55.9205 37.4432 54.9886 36.4119 54.3068 35.071C53.6307 33.7301 53.2926 32.1307 53.2926 30.2727C53.2926 28.4091 53.6335 26.8097 54.3153 25.4744C54.9972 24.1335 55.929 23.1051 57.1108 22.3892C58.2926 21.6676 59.6364 21.3068 61.142 21.3068C62.0682 21.3068 62.9318 21.4403 63.733 21.7074C64.5398 21.9687 65.2642 22.3551 65.9062 22.8665C66.5483 23.3722 67.0795 23.9915 67.5 24.7244C67.9205 25.4517 68.2045 26.2841 68.3523 27.2216ZM75.1087 39.2898C74.2791 39.2898 73.5291 39.1364 72.8587 38.8295C72.1882 38.517 71.657 38.0653 71.2649 37.4744C70.8786 36.8835 70.6854 36.1591 70.6854 35.3011C70.6854 34.5625 70.8274 33.9545 71.1115 33.4773C71.3956 33 71.7791 32.6222 72.2621 32.3438C72.745 32.0653 73.2848 31.8551 73.8814 31.7131C74.478 31.571 75.0859 31.4631 75.7053 31.3892C76.4893 31.2983 77.1257 31.2244 77.6143 31.1676C78.103 31.1051 78.4581 31.0057 78.6797 30.8693C78.9013 30.733 79.0121 30.5114 79.0121 30.2045V30.1449C79.0121 29.4006 78.8018 28.8239 78.3814 28.4148C77.9666 28.0057 77.3473 27.8011 76.5234 27.8011C75.6655 27.8011 74.9893 27.9915 74.495 28.3722C74.0064 28.7472 73.6683 29.1648 73.4808 29.625L71.0859 29.0795C71.37 28.2841 71.7848 27.642 72.3303 27.1534C72.8814 26.6591 73.5149 26.3011 74.2308 26.0795C74.9467 25.8523 75.6996 25.7386 76.4893 25.7386C77.0121 25.7386 77.5661 25.8011 78.1513 25.9261C78.7422 26.0455 79.2933 26.267 79.8047 26.5909C80.3217 26.9148 80.745 27.3778 81.0746 27.9801C81.4041 28.5767 81.5689 29.3523 81.5689 30.3068V39H79.0803V37.2102H78.978C78.8132 37.5398 78.5661 37.8636 78.2365 38.1818C77.907 38.5 77.4837 38.7642 76.9666 38.9744C76.4496 39.1847 75.8303 39.2898 75.1087 39.2898ZM75.6626 37.2443C76.3672 37.2443 76.9695 37.1051 77.4695 36.8267C77.9751 36.5483 78.3587 36.1847 78.62 35.7358C78.8871 35.2812 79.0206 34.7955 79.0206 34.2784V32.5909C78.9297 32.6818 78.7536 32.767 78.4922 32.8466C78.2365 32.9205 77.9439 32.9858 77.6143 33.0426C77.2848 33.0937 76.9638 33.142 76.6513 33.1875C76.3388 33.2273 76.0774 33.2614 75.8672 33.2898C75.3729 33.3523 74.9212 33.4574 74.5121 33.6051C74.1087 33.7528 73.7848 33.9659 73.5405 34.2443C73.3018 34.517 73.1825 34.8807 73.1825 35.3352C73.1825 35.9659 73.4155 36.4432 73.8814 36.767C74.3473 37.0852 74.9411 37.2443 75.6626 37.2443ZM84.9631 39V25.9091H87.4261V27.9886H87.5625C87.8011 27.2841 88.2216 26.7301 88.8239 26.3267C89.4318 25.9176 90.1193 25.7131 90.8864 25.7131C91.0455 25.7131 91.233 25.7187 91.4489 25.7301C91.6705 25.7415 91.8438 25.7557 91.9688 25.7727V28.2102C91.8665 28.1818 91.6847 28.1506 91.4233 28.1165C91.1619 28.0767 90.9006 28.0568 90.6392 28.0568C90.0369 28.0568 89.5 28.1847 89.0284 28.4403C88.5625 28.6903 88.1932 29.0398 87.9205 29.4886C87.6477 29.9318 87.5114 30.4375 87.5114 31.0057V39H84.9631ZM103.984 29.1051L101.674 29.5142C101.577 29.2187 101.424 28.9375 101.214 28.6705C101.009 28.4034 100.731 28.1847 100.379 28.0142C100.026 27.8437 99.5859 27.7585 99.0575 27.7585C98.3359 27.7585 97.7337 27.9205 97.2507 28.2443C96.7678 28.5625 96.5263 28.9744 96.5263 29.4801C96.5263 29.9176 96.6882 30.2699 97.0121 30.5369C97.3359 30.804 97.8587 31.0227 98.5803 31.1932L100.66 31.6705C101.864 31.9489 102.762 32.3778 103.353 32.9574C103.944 33.5369 104.239 34.2898 104.239 35.2159C104.239 36 104.012 36.6989 103.558 37.3125C103.109 37.9205 102.481 38.3977 101.674 38.7443C100.873 39.0909 99.9439 39.2642 98.8871 39.2642C97.4212 39.2642 96.2251 38.9517 95.299 38.3267C94.3729 37.696 93.8047 36.8011 93.5945 35.642L96.0575 35.267C96.2109 35.9091 96.5263 36.3949 97.0036 36.7244C97.4808 37.0483 98.103 37.2102 98.87 37.2102C99.7053 37.2102 100.373 37.0369 100.873 36.6903C101.373 36.3381 101.623 35.9091 101.623 35.4034C101.623 34.9943 101.469 34.6506 101.163 34.3722C100.862 34.0937 100.398 33.8835 99.7734 33.7415L97.5575 33.2557C96.3359 32.9773 95.4325 32.5341 94.8473 31.9261C94.2678 31.3182 93.978 30.5483 93.978 29.6165C93.978 28.8437 94.1939 28.1676 94.6257 27.5881C95.0575 27.0085 95.6541 26.5568 96.4155 26.233C97.1768 25.9034 98.049 25.7386 99.032 25.7386C100.447 25.7386 101.56 26.0455 102.373 26.6591C103.185 27.267 103.722 28.0824 103.984 29.1051Z" fill="white"/>
</svg>
