<svg width="150" height="150" viewBox="0 0 150 150" fill="none" xmlns="http://www.w3.org/2000/svg">
<path d="M137.5 0H12.5C9.18479 0 6.00537 1.31696 3.66116 3.66116C1.31696 6.00537 0 9.18479 0 12.5V137.5C0 140.815 1.31696 143.995 3.66116 146.339C6.00537 148.683 9.18479 150 12.5 150H137.5C140.815 150 143.995 148.683 146.339 146.339C148.683 143.995 150 140.815 150 137.5V12.5C150 9.18479 148.683 6.00537 146.339 3.66116C143.995 1.31696 140.815 0 137.5 0ZM12.5 137.5V12.5H137.5V137.5H12.5Z" fill="#FF0000"/>
</svg>
