<svg width="80" height="40" viewBox="0 0 80 40" fill="none" xmlns="http://www.w3.org/2000/svg">
<path d="M40.0627 0.0134277C41.3956 0.0108223 42.6872 0.47501 43.7135 1.32542L77.9393 29.8469C79.1042 30.8152 79.8368 32.2065 79.9759 33.7149C80.1149 35.2232 79.6491 36.7251 78.6809 37.89C77.7126 39.0549 76.3213 39.7875 74.8129 39.9265C73.3045 40.0656 71.8027 39.5998 70.6378 38.6316L40.0627 13.0763L9.48769 37.7189C8.90421 38.1927 8.23283 38.5465 7.51215 38.7601C6.79147 38.9736 6.03571 39.0426 5.28828 38.9631C4.54086 38.8835 3.81651 38.6571 3.15688 38.2967C2.49726 37.9364 1.91535 37.4492 1.44462 36.8632C0.922218 36.2767 0.526573 35.5886 0.282471 34.8421C0.0383682 34.0955 -0.0489197 33.3066 0.0260468 32.5248C0.101021 31.7429 0.336647 30.985 0.718163 30.2984C1.09969 29.6119 1.61889 29.0115 2.24323 28.5349L36.469 0.983158C37.5248 0.267178 38.7901 -0.0742531 40.0627 0.0134277Z" fill="#231F20"/>
</svg>
