<svg width="80" height="40" viewBox="0 0 80 40" fill="none" xmlns="http://www.w3.org/2000/svg">
<path d="M39.9373 39.9373C38.6044 39.9399 37.3128 39.4757 36.2865 38.6253L2.06069 10.1038C0.895779 9.13552 0.163207 7.74417 0.0241378 6.23581C-0.114932 4.72744 0.350893 3.2256 1.31913 2.06069C2.28737 0.895776 3.67872 0.163207 5.18708 0.0241379C6.69545 -0.114931 8.19728 0.35089 9.3622 1.31913L39.9373 26.8744L70.5123 2.23182C71.0958 1.75799 71.7672 1.40414 72.4878 1.19062C73.2085 0.977098 73.9643 0.908111 74.7117 0.987624C75.4591 1.06714 76.1835 1.29358 76.8431 1.65394C77.5027 2.01431 78.0846 2.50148 78.5554 3.08747C79.0778 3.67399 79.4734 4.36208 79.7175 5.10862C79.9616 5.85517 80.0489 6.64407 79.974 7.42593C79.899 8.20778 79.6634 8.96572 79.2818 9.65227C78.9003 10.3388 78.3811 10.9392 77.7568 11.4157L43.531 38.9675C42.4752 39.6835 41.2099 40.0249 39.9373 39.9373Z" fill="#231F20"/>
</svg>
